<svg width="192" height="186" viewBox="0 0 192 186" fill="none" xmlns="http://www.w3.org/2000/svg">
<g clip-path="url(#clip0_96_459)">
<path d="M28.4314 142.954C19.7834 139.918 12.3668 134.388 7.85009 124.071C-0.0600052 105.951 12.16 85.9459 25.5221 79.5302C38.8842 73.1145 57.6137 71.978 58.3375 61.7838C59.0613 51.5895 43.18 35.3584 56.1755 22.532C67.1265 11.708 83.2381 7.94911 97.8034 6.70435C122.051 4.62811 144.023 9.47923 159.011 30.9944C165.629 40.4949 172.28 53.7445 170.489 65.9264C167.603 85.5572 154.979 93.4784 158.588 104.794C162.198 116.11 175.175 112.347 180.584 126.688C183.672 134.87 181.863 142.964 174.117 147.087C165.309 151.775 154.786 149.463 145.367 149.335C130.388 149.133 115.405 148.725 100.426 148.282C87.877 147.918 75.328 147.505 62.779 147.042C51.3204 146.659 39.42 146.811 28.4314 142.954Z" fill="#1D5EC0"/>
<path opacity="0.7" d="M28.4314 142.954C19.7834 139.918 12.3668 134.388 7.85009 124.071C-0.0600052 105.951 12.16 85.9459 25.5221 79.5302C38.8842 73.1145 57.6137 71.978 58.3375 61.7838C59.0613 51.5895 43.18 35.3584 56.1755 22.532C67.1265 11.708 83.2381 7.94911 97.8034 6.70435C122.051 4.62811 144.023 9.47923 159.011 30.9944C165.629 40.4949 172.28 53.7445 170.489 65.9264C167.603 85.5572 154.979 93.4784 158.588 104.794C162.198 116.11 175.175 112.347 180.584 126.688C183.672 134.87 181.863 142.964 174.117 147.087C165.309 151.775 154.786 149.463 145.367 149.335C130.388 149.133 115.405 148.725 100.426 148.282C87.877 147.918 75.328 147.505 62.779 147.042C51.3204 146.659 39.42 146.811 28.4314 142.954Z" fill="white"/>
<path d="M185.078 66.9153C182.422 63.5746 178.657 70.0592 174.498 77.9066C172.218 82.2067 167.171 85.8721 164.966 91.2742C162.823 96.5337 163.599 103.328 161.883 108.125C159.35 115.2 157.268 115.141 155.256 118.807C154.368 116.691 153.588 114.162 153.729 111.559C153.912 108.253 159.063 105.085 159.181 100.888C159.27 97.316 154.344 92.888 154.368 88.952C154.368 85.2079 159.369 81.8032 159.303 77.9656C159.237 74.128 154.133 69.9657 153.945 66.2413C153.752 62.2315 158.476 58.4332 158.133 54.8564C157.719 50.5514 152.258 47.0336 151.581 43.8061C150.331 37.8578 150.697 31.1961 148.333 31.3093C146.105 31.4175 147.393 38.645 146.373 44.8737C145.814 48.3177 140.451 51.4075 140.169 55.9978C139.934 59.8453 144.785 64.6866 144.705 69.0014C144.629 73.0309 139.615 76.6963 139.643 80.8734C139.671 85.0504 144.742 89.5867 144.841 93.6654C144.949 97.9753 140.085 101.862 140.235 105.773C140.315 107.771 141.339 109.739 142.486 111.623C141.053 109.606 139.196 107.53 138.482 105.144C137.438 101.729 139.06 97.3701 137.744 94.0442C136.334 90.4378 132.127 88.3026 130.421 85.4785C128.142 81.7147 127.207 76.6963 124.485 75.7812C120.293 74.3642 120.927 79.8746 122.554 86.7429C123.414 90.3837 122.032 95.4907 123.837 100.145C125.383 104.14 129.909 107.264 131.827 111.377C133.744 115.49 133.204 120.922 135.211 124.632C136.884 127.717 139.629 129.832 141.871 131.746L142.002 132.125C142.075 132.206 142.164 132.269 142.264 132.309C142.363 132.349 142.469 132.365 142.576 132.356C143.331 132.996 144.02 133.718 144.629 134.511C145.767 136.086 144.498 139.161 145.226 139.923C147.229 142.034 147.332 140.307 147.21 138.482C147.139 137.424 149.475 135.722 149.334 134.142C149.438 133.962 149.59 133.819 149.771 133.729C150.561 133.542 154.17 136.74 154.659 135.697C155.021 134.939 150.645 131.761 150.899 130.777C151.078 130.083 154.147 130.319 155.599 130.014C155.642 130.046 155.68 130.084 155.712 130.127C156.14 130.708 156.356 133.286 157.592 132.809C159.237 132.169 161.455 124.174 166.08 116.519C168.867 111.904 174.465 108.288 177.163 102.797C179.861 97.3062 179.588 90.1131 181.327 84.9619C184.011 76.9964 187.508 69.9854 185.078 66.9153ZM145.781 118.379C145.978 122.28 144.714 123.791 143.506 125.153C142.764 120.725 145.663 120.725 144.225 114.92C144.089 114.405 143.893 113.909 143.642 113.444C144.742 115.205 145.706 116.868 145.781 118.379ZM147.628 131.554C147.7 131.672 147.749 131.804 147.77 131.942C147.792 132.079 147.787 132.221 147.755 132.356C147.285 132.076 146.815 131.805 146.383 131.525C146.994 131.397 147.468 131.357 147.628 131.554Z" fill="#1D5EC0"/>
<path opacity="0.5" d="M185.078 66.9153C182.422 63.5746 178.657 70.0592 174.498 77.9066C172.218 82.2067 167.171 85.8721 164.966 91.2742C162.823 96.5337 163.599 103.328 161.883 108.125C159.35 115.2 157.268 115.141 155.256 118.807C154.368 116.691 153.588 114.162 153.729 111.559C153.912 108.253 159.063 105.085 159.181 100.888C159.27 97.316 154.344 92.888 154.368 88.952C154.368 85.2079 159.369 81.8032 159.303 77.9656C159.237 74.128 154.133 69.9657 153.945 66.2413C153.752 62.2315 158.476 58.4332 158.133 54.8564C157.719 50.5514 152.258 47.0336 151.581 43.8061C150.331 37.8578 150.697 31.1961 148.333 31.3093C146.105 31.4175 147.393 38.645 146.373 44.8737C145.814 48.3177 140.451 51.4075 140.169 55.9978C139.934 59.8453 144.785 64.6866 144.705 69.0014C144.629 73.0309 139.615 76.6963 139.643 80.8734C139.671 85.0504 144.742 89.5867 144.841 93.6654C144.949 97.9753 140.085 101.862 140.235 105.773C140.315 107.771 141.339 109.739 142.486 111.623C141.053 109.606 139.196 107.53 138.482 105.144C137.438 101.729 139.06 97.3701 137.744 94.0442C136.334 90.4378 132.127 88.3026 130.421 85.4785C128.142 81.7147 127.207 76.6963 124.485 75.7812C120.293 74.3642 120.927 79.8746 122.554 86.7429C123.414 90.3837 122.032 95.4907 123.837 100.145C125.383 104.14 129.909 107.264 131.827 111.377C133.744 115.49 133.204 120.922 135.211 124.632C136.884 127.717 139.629 129.832 141.871 131.746L142.002 132.125C142.075 132.206 142.164 132.269 142.264 132.309C142.363 132.349 142.469 132.365 142.576 132.356C143.331 132.996 144.02 133.718 144.629 134.511C145.767 136.086 144.498 139.161 145.226 139.923C147.229 142.034 147.332 140.307 147.21 138.482C147.139 137.424 149.475 135.722 149.334 134.142C149.438 133.962 149.59 133.819 149.771 133.729C150.561 133.542 154.17 136.74 154.659 135.697C155.021 134.939 150.645 131.761 150.899 130.777C151.078 130.083 154.147 130.319 155.599 130.014C155.642 130.046 155.68 130.084 155.712 130.127C156.14 130.708 156.356 133.286 157.592 132.809C159.237 132.169 161.455 124.174 166.08 116.519C168.867 111.904 174.465 108.288 177.163 102.797C179.861 97.3062 179.588 90.1131 181.327 84.9619C184.011 76.9964 187.508 69.9854 185.078 66.9153ZM145.781 118.379C145.978 122.28 144.714 123.791 143.506 125.153C142.764 120.725 145.663 120.725 144.225 114.92C144.089 114.405 143.893 113.909 143.642 113.444C144.742 115.205 145.706 116.868 145.781 118.379ZM147.628 131.554C147.7 131.672 147.749 131.804 147.77 131.942C147.792 132.079 147.787 132.221 147.755 132.356C147.285 132.076 146.815 131.805 146.383 131.525C146.994 131.397 147.468 131.357 147.628 131.554Z" fill="white"/>
<g opacity="0.2">
<path d="M152.967 114.27L152.497 114.039L151.087 118.974L151.144 107.259L153.705 99.6333L153.231 99.4217L151.153 105.616L151.205 94.7133L155.317 87.54L154.88 87.2398L151.21 93.6506L151.266 81.7147L155.073 75.7073L154.65 75.3925L151.271 80.7208L151.318 70.5955L153.743 65.2917L153.292 65.026L151.327 69.3507L151.379 58.0888L154.556 51.2795L154.105 51.0188L151.383 56.8441L151.435 46.1923L150.937 46.1431L150.885 56.6817L145.499 48.1996L145.09 48.4653L150.881 57.5821L150.819 69.9657L145.452 64.0715L145.109 64.4159L150.819 70.684L150.768 81.08L145.574 76.3223L145.264 76.7061L150.763 81.7393L150.707 93.808L145.353 87.3431L144.991 87.6679L150.702 94.5706L150.646 107.126L150.603 107.245L145.4 99.1413L144.996 99.407L150.636 108.194L150.58 120.278L146.284 111.23L145.837 111.431L150.575 121.399L150.505 136.174L151.003 136.223L151.078 120.474L152.967 114.27Z" fill="black"/>
<path d="M179.696 87.8203L179.471 87.3333L174.287 89.5768L176.895 83.9631L182.728 80.5191L182.455 80.0566L177.295 83.1021L181.623 73.7885L181.172 73.5277L177.323 81.7983L178.3 72.5831L177.802 72.4749L176.665 83.2152L173.878 89.2127L174.202 79.7122L173.704 79.6482L173.337 90.3787L170.169 97.1929L169.272 90.4624L168.778 90.487L169.784 98.0244L166.16 105.823L165.85 97.6357L165.352 97.6111L165.7 106.816L161.658 115.51L161.23 112.174L160.732 112.184L161.249 116.386L154.758 130.354L155.214 130.619L161.357 117.399L161.38 117.64L167.175 115.2L166.955 114.708L161.799 116.878L161.766 116.524L166.094 107.205L171.631 105.414L171.448 104.912L166.4 106.541L170.31 98.1277L176.646 95.3233L176.416 94.8363L170.658 97.3897L173.943 90.3099L179.696 87.8203Z" fill="black"/>
<path d="M142.082 117.094L141.584 117.016L141.241 122.211L138.656 116.386L139.939 109.719L139.445 109.572L138.294 115.574L134.792 107.687L135.728 99.5102L135.234 99.4069L134.388 106.777L131.479 100.224L131.77 100.352L132.189 92.3024L131.69 92.2286L131.305 99.5988L131.178 99.5446L127.902 92.1646L128.532 84.6223L128.034 84.5288L127.474 91.2052L124.025 83.4316L123.573 83.6186L127.244 91.8842L123.226 89.2963L122.995 89.7391L127.611 92.7108L130.515 99.2593L126.694 97.6111L126.544 98.0932L130.821 99.9382L133.834 106.728L129.322 104.037L129.105 104.489L134.181 107.515L137.777 115.613L133.749 114.059L133.617 114.551L138.068 116.268L141.17 123.259L141.147 123.638L137.279 121.483L137.077 121.94L141.598 124.464L141.612 124.248L147.539 137.601L147.99 137.414L141.678 123.2L142.082 117.094Z" fill="black"/>
</g>
<path d="M146.11 136.917C146.11 136.917 146.552 135.397 143.459 133.586C142.217 132.813 140.936 132.109 139.624 131.476C139.624 131.476 140.352 133.753 141.95 134.964C143.548 136.174 144.23 136.725 144.23 136.725C142.939 136.066 141.533 135.693 140.099 135.628C138.805 135.592 137.531 135.969 136.447 136.71C137.794 137.453 139.183 138.11 140.606 138.678C142.303 139.304 144.086 139.637 145.884 139.662C145.884 139.662 141.852 139.17 141.062 139.992C140.326 140.891 139.672 141.861 139.112 142.89C140.774 142.742 142.446 142.75 144.108 142.915C146.246 143.21 149.076 142.083 149.076 142.083L151.491 143.338L152.507 141.758C152.507 141.758 153.075 141.704 154.998 142.742C156.771 143.611 158.601 144.347 160.473 144.946L156.878 140.12L160.511 141.015C162.33 141.463 165.258 140.942 165.258 140.942C165.258 140.942 164.98 139.982 162.988 139.18C160.995 138.378 157.188 137.129 157.188 137.129C157.188 137.129 160.323 137.822 162.405 136.396C163.678 135.513 164.828 134.45 165.822 133.237C165.822 133.237 162.851 131.407 160.05 132.046C158.146 132.566 156.365 133.489 154.814 134.757C154.814 134.757 156.647 133.227 157.235 131.195C157.57 130.087 157.806 128.949 157.94 127.795C157.94 127.795 154.542 128.981 153.677 130.049C152.812 131.116 151.355 134.216 151.355 134.216C151.355 134.216 152.812 131.116 151.111 129.296C149.409 127.476 147.976 126.059 147.976 126.059C147.976 126.059 146.542 128.238 146.246 129.995C145.95 131.751 148.103 134.885 148.103 134.885L146.185 133.832L146.11 136.917Z" fill="#1D5EC0"/>
<path opacity="0.3" d="M146.11 136.917C146.11 136.917 146.552 135.397 143.459 133.586C142.217 132.813 140.936 132.109 139.624 131.476C139.624 131.476 140.352 133.753 141.95 134.964C143.548 136.174 144.23 136.725 144.23 136.725C142.939 136.066 141.533 135.693 140.099 135.628C138.805 135.592 137.531 135.969 136.447 136.71C137.794 137.453 139.183 138.11 140.606 138.678C142.303 139.304 144.086 139.637 145.884 139.662C145.884 139.662 141.852 139.17 141.062 139.992C140.326 140.891 139.672 141.861 139.112 142.89C140.774 142.742 142.446 142.75 144.108 142.915C146.246 143.21 149.076 142.083 149.076 142.083L151.491 143.338L152.507 141.758C152.507 141.758 153.075 141.704 154.998 142.742C156.771 143.611 158.601 144.347 160.473 144.946L156.878 140.12L160.511 141.015C162.33 141.463 165.258 140.942 165.258 140.942C165.258 140.942 164.98 139.982 162.988 139.18C160.995 138.378 157.188 137.129 157.188 137.129C157.188 137.129 160.323 137.822 162.405 136.396C163.678 135.513 164.828 134.45 165.822 133.237C165.822 133.237 162.851 131.407 160.05 132.046C158.146 132.566 156.365 133.489 154.814 134.757C154.814 134.757 156.647 133.227 157.235 131.195C157.57 130.087 157.806 128.949 157.94 127.795C157.94 127.795 154.542 128.981 153.677 130.049C152.812 131.116 151.355 134.216 151.355 134.216C151.355 134.216 152.812 131.116 151.111 129.296C149.409 127.476 147.976 126.059 147.976 126.059C147.976 126.059 146.542 128.238 146.246 129.995C145.95 131.751 148.103 134.885 148.103 134.885L146.185 133.832L146.11 136.917Z" fill="white"/>
<path d="M66.8679 73.6361C66.8679 73.6361 63.8364 71.0925 63.0562 69.4541C62.3982 68.0617 61.9188 66.0937 62.5862 64.6128C62.7309 64.26 62.9458 63.9434 63.2166 63.6844C63.4873 63.4253 63.8077 63.2297 64.1564 63.1105C64.5051 62.9913 64.8741 62.9513 65.2388 62.9932C65.6034 63.035 65.9553 63.1578 66.271 63.3533C68.151 64.5882 68.339 68.7998 67.8643 70.8268C67.8361 71.0039 66.9008 73.6656 66.8679 73.6361Z" fill="#1D5EC0"/>
<path d="M94.9082 94.856C94.7813 94.979 92.6194 96.6469 92.6053 96.6076C92.5912 96.5682 91.3974 92.7011 91.5995 90.8807C91.7687 89.3309 92.3891 87.4072 93.7286 86.5708C94.0372 86.3632 94.3846 86.2268 94.7476 86.1709C95.1106 86.115 95.4808 86.1407 95.8335 86.2464C96.1862 86.3521 96.5134 86.5353 96.7931 86.7838C97.0728 87.0324 97.2987 87.3405 97.4557 87.6876C98.3722 89.8229 96.3558 93.4538 94.9082 94.856Z" fill="#1D5EC0"/>
<path d="M31.3595 77.4983C31.3595 77.4983 42.4609 89.6901 42.4045 104.667C42.3481 119.643 31.1245 131.727 31.1245 131.727C31.1245 131.727 20.0231 119.535 20.0842 104.558C20.1453 89.5818 31.3595 77.4983 31.3595 77.4983Z" fill="#1D5EC0"/>
<path d="M47.1891 113.636C47.0424 113.469 46.9088 113.289 46.7896 113.099C45.9812 111.796 45.2903 109.901 45.812 108.342C45.9174 107.974 46.0964 107.633 46.337 107.343C46.5777 107.053 46.8745 106.82 47.2079 106.659C47.5412 106.498 47.9034 106.413 48.2705 106.409C48.6376 106.406 49.0011 106.485 49.337 106.639C50.8457 107.397 51.5836 109.97 51.7434 112.076C52.345 111.928 52.8855 111.815 53.3508 111.732C53.5529 111.24 53.7503 110.777 53.9524 110.29C54.1545 109.803 54.3284 109.306 54.5211 108.79C54.7843 108.042 55.024 107.254 55.2637 106.472C54.3848 106.054 51.828 104.78 50.8739 103.658C49.9198 102.536 48.9422 100.735 49.2336 99.1168C49.2852 98.7357 49.4132 98.3703 49.6094 98.0447C49.8056 97.7191 50.0654 97.4407 50.3718 97.2278C50.6781 97.015 51.0241 96.8724 51.3869 96.8096C51.7497 96.7468 52.1211 96.7652 52.4766 96.8634C54.5822 97.5326 55.823 101.542 55.8653 103.628C55.8653 103.697 55.8324 104.12 55.7901 104.662C56.0016 103.889 56.2178 103.122 56.4058 102.33C56.951 100.086 57.4351 97.7835 57.9333 95.4809C58.0367 94.9889 58.1448 94.5215 58.2529 94.0443C57.5103 93.695 54.7279 92.342 53.7315 91.171C52.7351 90.0001 51.7951 88.2485 52.0865 86.6249C52.1387 86.2442 52.2672 85.8794 52.4636 85.5544C52.66 85.2294 52.9199 84.9515 53.2262 84.7392C53.5325 84.5268 53.8783 84.3847 54.2408 84.3222C54.6033 84.2597 54.9744 84.2782 55.3295 84.3765C57.4398 85.0407 58.6759 89.0505 58.7229 91.1366C58.7229 91.2153 58.6806 91.7417 58.6289 92.3321C58.9156 91.0825 59.2164 89.8426 59.5689 88.6225C60.1307 86.5257 60.8231 84.4696 61.6416 82.4675C61.3784 82.3495 58.0884 80.8292 56.9792 79.5155C55.9969 78.3593 55.0475 76.5931 55.3342 74.9744C55.3864 74.593 55.515 74.2276 55.7117 73.902C55.9083 73.5764 56.1686 73.298 56.4753 73.0852C56.782 72.8724 57.1283 72.7299 57.4914 72.6671C57.8545 72.6044 58.2261 72.6227 58.5819 72.721C60.6875 73.3901 61.9283 77.3999 61.9706 79.486C61.9706 79.6336 61.8108 81.5426 61.7309 82.2215L61.7591 82.1527C62.6065 80.2106 63.6179 78.3516 64.7812 76.598C65.8069 75.0273 66.9196 73.5208 68.1135 72.0863C69.2086 70.7481 70.2896 69.5919 71.2484 68.5735C71.7748 68.0323 72.2636 67.5403 72.7242 67.0975H72.6772C72.6396 67.0975 73.7065 64.4899 73.7911 64.3324C74.7781 62.5219 77.678 59.6486 79.8259 60.1455C80.1834 60.2428 80.5175 60.4172 80.8068 60.6575C81.0962 60.8979 81.3343 61.1989 81.506 61.5412C81.6777 61.8835 81.7792 62.2596 81.8039 62.6454C81.8286 63.0312 81.776 63.4181 81.6495 63.7814C81.1795 65.3509 79.5345 66.4087 78.1527 66.9154C76.7709 67.4222 73.6266 67.186 72.8558 67.1122C72.3858 67.6042 71.8876 68.0962 71.3518 68.6915C70.4118 69.7247 69.359 70.9055 68.2968 72.2635C68.0148 72.6275 67.7234 73.031 67.4367 73.4147C68.0477 72.8735 68.8984 72.1454 68.9877 72.0863C70.6468 70.9646 74.4679 69.833 76.1599 71.3287C76.4352 71.5874 76.656 71.9031 76.8085 72.2559C76.961 72.6087 77.0418 72.9908 77.0458 73.3779C77.0498 73.7651 76.9769 74.149 76.8316 74.5051C76.6864 74.8612 76.4721 75.1819 76.2022 75.4467C75.0977 76.6078 73.1895 76.7456 71.7372 76.5193C70.2849 76.2929 67.5072 74.4824 66.9291 74.0839C66.304 74.9399 65.6789 75.8403 65.0773 76.8194C63.965 78.5783 63.004 80.4372 62.2056 82.3741C62.1586 82.4872 62.1257 82.6053 62.0834 82.7185C62.3419 82.3987 63.8835 80.7505 64.0057 80.6373C65.5379 79.3286 69.218 77.7591 71.0557 79.0481C71.3562 79.274 71.6085 79.5627 71.7967 79.896C71.985 80.2292 72.105 80.5999 72.1492 80.9843C72.1934 81.3687 72.1608 81.7585 72.0535 82.129C71.9461 82.4995 71.7664 82.8427 71.5257 83.1367C70.5481 84.4159 68.6634 84.775 67.197 84.7209C65.5097 84.6569 62.1821 82.871 62.0599 82.8021C61.3113 84.7571 60.6833 86.7604 60.1799 88.7996C59.7992 90.31 59.4749 91.8549 59.16 93.4096C59.5078 92.9963 60.9413 91.4416 61.04 91.358C62.5722 90.0493 66.2523 88.4798 68.09 89.7688C68.3905 89.9946 68.6428 90.2833 68.831 90.6166C69.0193 90.9499 69.1393 91.3205 69.1835 91.7049C69.2277 92.0893 69.1951 92.4792 69.0877 92.8497C68.9804 93.2202 68.8007 93.5633 68.56 93.8573C67.5824 95.1365 65.6977 95.5006 64.236 95.4416C62.5863 95.3776 59.3903 93.6802 59.1224 93.5375C58.9767 94.2411 58.8357 94.9496 58.6947 95.6581C58.2247 97.9705 57.8064 100.288 57.2847 102.546C57.1108 103.333 56.9134 104.101 56.716 104.878C57.2565 104.278 58.2529 103.205 58.3516 103.127C59.8791 101.818 63.5639 100.248 65.4016 101.533C65.7022 101.759 65.9546 102.048 66.1429 102.382C66.3312 102.715 66.4512 103.086 66.4954 103.471C66.5396 103.856 66.5069 104.246 66.3996 104.617C66.2922 104.988 66.1124 105.332 65.8716 105.626C64.8893 106.905 63.0093 107.264 61.5429 107.21C60.0765 107.156 57.3552 105.788 56.5938 105.39C56.2601 106.674 55.9029 107.938 55.494 109.168C55.3107 109.69 55.1509 110.241 54.9441 110.733L54.6339 111.52C54.9065 111.486 55.0616 111.476 55.0616 111.476C55.0616 111.476 55.0898 112.204 55.024 113.395C56.6408 112.17 58.9673 111.117 60.4854 111.855C60.8145 112.031 61.1049 112.278 61.3382 112.578C61.5715 112.879 61.7427 113.227 61.8408 113.6C61.9389 113.973 61.9618 114.364 61.9081 114.747C61.8544 115.13 61.7253 115.497 61.5288 115.825C61.4298 115.999 61.3166 116.164 61.1904 116.317C60.9055 118.124 60.1875 119.825 59.1036 121.262C59.019 121.365 57.9239 122.443 57.3505 122.979C57.9051 122.659 58.455 122.344 59.0237 121.995C59.8509 121.503 60.7063 120.967 61.5382 120.445L62.8213 119.574C63.2584 119.289 63.6485 118.959 64.0715 118.649C64.6825 118.182 65.2888 117.665 65.8951 117.173C65.3781 116.312 63.907 113.729 63.6908 112.253C63.4746 110.777 63.5921 108.676 64.6778 107.496C64.9216 107.209 65.221 106.98 65.556 106.824C65.8911 106.668 66.254 106.589 66.6206 106.592C66.9872 106.595 67.3491 106.679 67.6819 106.84C68.0147 107.001 68.3109 107.235 68.5506 107.525C69.9606 109.316 68.9172 113.385 67.8691 115.156C67.8362 115.21 67.5777 115.559 67.2675 115.973C67.8456 115.451 68.4237 114.935 68.9924 114.389C70.6092 112.834 72.2072 111.2 73.8193 109.572L74.8298 108.558C74.3927 107.835 72.7712 105.075 72.5503 103.51C72.3294 101.946 72.4516 99.9335 73.5326 98.7527C73.7764 98.466 74.0758 98.2371 74.4108 98.0813C74.7458 97.9254 75.1088 97.8462 75.4754 97.849C75.842 97.8518 76.2039 97.9365 76.5367 98.0975C76.8695 98.2584 77.1657 98.4919 77.4054 98.7823C78.8154 100.573 77.772 104.642 76.7286 106.413C76.691 106.477 76.3808 106.905 76.033 107.353C76.9213 106.482 77.8143 105.621 78.7261 104.799C80.28 103.373 81.924 102.058 83.647 100.863C83.4872 100.608 81.5273 97.4194 81.297 95.6728C81.0761 94.1329 81.1983 92.1009 82.2793 90.9201C82.5227 90.6331 82.8219 90.4038 83.1567 90.2475C83.4916 90.0913 83.8545 90.0116 84.2211 90.014C84.5877 90.0163 84.9496 90.1005 85.2826 90.261C85.6156 90.4215 85.9121 90.6546 86.1521 90.9447C87.5621 92.7405 86.5187 96.8093 85.4753 98.5756C85.4001 98.7035 84.2721 100.199 83.8538 100.721L83.9149 100.676C85.6299 99.5554 87.4372 98.5971 89.3152 97.813C90.9797 97.1237 92.6808 96.5356 94.41 96.0517C96.0221 95.5597 97.5167 95.2448 98.8468 94.9643C99.5659 94.8167 100.229 94.6937 100.849 94.5904L100.811 94.5609C100.779 94.5314 103.02 92.9865 103.161 92.9078C104.924 91.9779 108.834 91.2793 110.367 92.957C110.615 93.2435 110.804 93.5811 110.921 93.9482C111.039 94.3154 111.082 94.7041 111.048 95.0896C111.014 95.4751 110.903 95.8489 110.724 96.1873C110.544 96.5258 110.299 96.8214 110.005 97.0553C108.787 98.0836 106.879 98.0098 105.46 97.6211C104.04 97.2325 101.545 95.1907 100.938 94.6691C100.299 94.7921 99.6176 94.9299 98.8656 95.1021C97.5449 95.4121 96.0456 95.7761 94.4664 96.2878C94.0434 96.4256 93.5922 96.5879 93.1504 96.7404C93.9447 96.6519 95.0304 96.5437 95.1385 96.5437C97.0984 96.583 100.873 97.8819 101.512 100.121C101.606 100.492 101.625 100.879 101.569 101.259C101.512 101.639 101.381 102.002 101.184 102.325C100.986 102.649 100.727 102.926 100.421 103.14C100.116 103.353 99.7722 103.498 99.4109 103.565C97.8881 103.879 96.2242 102.876 95.1291 101.833C94.034 100.79 92.6663 97.6605 92.3843 96.9815C91.4161 97.3309 90.4291 97.7146 89.4186 98.1771C87.5792 98.9921 85.8141 99.9802 84.1452 101.129C84.0465 101.198 83.9572 101.277 83.8585 101.346C84.2439 101.232 86.3918 100.75 86.5469 100.736C88.5021 100.544 92.3843 101.395 93.2491 103.55C93.3848 103.909 93.4472 104.294 93.4323 104.681C93.4174 105.067 93.3256 105.446 93.1628 105.793C93 106.14 92.7697 106.447 92.4867 106.695C92.2037 106.944 91.8743 107.128 91.5195 107.235C90.039 107.727 88.2812 106.925 87.0874 106.015C85.715 104.972 83.8632 101.528 83.7974 101.395C82.1605 102.591 80.5985 103.896 79.1209 105.301C78.0211 106.334 76.9495 107.432 75.8826 108.544C76.3855 108.406 78.383 107.963 78.5287 107.948C80.4839 107.756 84.3708 108.607 85.2309 110.758C85.3666 111.117 85.429 111.502 85.4141 111.889C85.3992 112.275 85.3074 112.654 85.1446 113C84.9818 113.347 84.7515 113.655 84.4685 113.903C84.1855 114.152 83.8561 114.335 83.5013 114.443C82.0208 114.935 80.263 114.133 79.0739 113.227C77.7297 112.204 75.9437 108.913 75.7839 108.637L74.3316 110.152C72.7618 111.82 71.1873 113.498 69.5893 115.102C69.0394 115.658 68.4754 116.184 67.9114 116.711C68.6681 116.529 70.0593 116.219 70.1815 116.219C72.1367 116.027 76.0189 116.878 76.8837 119.033C77.0194 119.393 77.0818 119.778 77.0669 120.164C77.052 120.55 76.9602 120.929 76.7974 121.276C76.6346 121.623 76.4043 121.93 76.1213 122.179C75.8383 122.427 75.5089 122.611 75.1541 122.718C73.6736 123.21 71.9158 122.408 70.722 121.498C69.5282 120.588 67.9678 117.857 67.5354 117.07C66.5954 117.946 65.6554 118.787 64.6637 119.574C64.236 119.899 63.8177 120.263 63.39 120.558L62.1304 121.459C61.2468 122.039 60.429 122.58 59.5924 123.102C59.1741 123.367 58.7699 123.594 58.361 123.859C59.1036 123.55 60.288 123.082 60.4008 123.053C62.309 122.561 66.2664 122.762 67.4273 124.75C67.6148 125.086 67.7332 125.458 67.7747 125.845C67.8162 126.231 67.78 126.622 67.6685 126.993C67.5569 127.364 67.3724 127.706 67.1269 127.997C66.8814 128.289 66.5803 128.524 66.2429 128.686C64.8329 129.409 62.9999 128.898 61.6886 128.194C60.2457 127.417 58.079 124.558 57.8111 124.209C56.8053 124.819 55.8183 125.404 54.883 125.936C52.392 127.353 50.2159 128.484 48.5286 129.331C43.0437 134.374 35.3263 134.929 35.3263 134.929C35.3263 134.929 34.9221 125.089 40.3647 118.625C42.2599 116.455 44.5905 114.751 47.1891 113.636ZM56.9792 123.225C56.81 122.821 55.494 119.697 55.4047 117.936C55.0992 117.877 54.7937 117.808 54.4976 117.734C53.9414 120.835 52.7815 123.782 51.0901 126.393C52.0865 125.901 53.1675 125.331 54.3143 124.711C55.165 124.253 56.0627 123.751 56.9792 123.225Z" fill="#1D5EC0"/>
<path d="M6.75029 111.756C6.75029 111.756 15.9952 112.056 21.6587 118.314C27.3222 124.573 27.247 134.413 27.247 134.413C27.247 134.413 18.0021 134.113 12.3386 127.854C6.67509 121.596 6.75029 111.756 6.75029 111.756Z" fill="#1D5EC0"/>
<g opacity="0.5">
<path d="M66.8679 73.6361C66.8679 73.6361 63.8364 71.0925 63.0562 69.4541C62.3982 68.0617 61.9188 66.0937 62.5862 64.6128C62.7309 64.26 62.9458 63.9434 63.2166 63.6844C63.4873 63.4253 63.8077 63.2297 64.1564 63.1105C64.5051 62.9913 64.8741 62.9513 65.2388 62.9932C65.6034 63.035 65.9553 63.1578 66.271 63.3533C68.151 64.5882 68.339 68.7998 67.8643 70.8268C67.8361 71.0039 66.9008 73.6656 66.8679 73.6361Z" fill="white"/>
<path d="M94.9082 94.856C94.7813 94.979 92.6194 96.6469 92.6053 96.6076C92.5912 96.5682 91.3974 92.7011 91.5995 90.8807C91.7687 89.3309 92.3891 87.4072 93.7286 86.5708C94.0372 86.3632 94.3846 86.2268 94.7476 86.1709C95.1106 86.115 95.4808 86.1407 95.8335 86.2464C96.1862 86.3521 96.5134 86.5353 96.7931 86.7838C97.0728 87.0324 97.2987 87.3405 97.4557 87.6876C98.3722 89.8229 96.3558 93.4538 94.9082 94.856Z" fill="white"/>
<path d="M31.3595 77.4983C31.3595 77.4983 42.4609 89.6901 42.4045 104.667C42.3481 119.643 31.1245 131.727 31.1245 131.727C31.1245 131.727 20.0231 119.535 20.0842 104.558C20.1453 89.5818 31.3595 77.4983 31.3595 77.4983Z" fill="white"/>
<path d="M47.1891 113.636C47.0424 113.469 46.9088 113.289 46.7896 113.099C45.9812 111.796 45.2903 109.901 45.812 108.342C45.9174 107.974 46.0964 107.633 46.337 107.343C46.5777 107.053 46.8745 106.82 47.2079 106.659C47.5412 106.498 47.9034 106.413 48.2705 106.409C48.6376 106.406 49.0011 106.485 49.337 106.639C50.8457 107.397 51.5836 109.97 51.7434 112.076C52.345 111.928 52.8855 111.815 53.3508 111.732C53.5529 111.24 53.7503 110.777 53.9524 110.29C54.1545 109.803 54.3284 109.306 54.5211 108.79C54.7843 108.042 55.024 107.254 55.2637 106.472C54.3848 106.054 51.828 104.78 50.8739 103.658C49.9198 102.536 48.9422 100.735 49.2336 99.1168C49.2852 98.7357 49.4132 98.3703 49.6094 98.0447C49.8056 97.7191 50.0654 97.4407 50.3718 97.2278C50.6781 97.015 51.0241 96.8724 51.3869 96.8096C51.7497 96.7468 52.1211 96.7652 52.4766 96.8634C54.5822 97.5326 55.823 101.542 55.8653 103.628C55.8653 103.697 55.8324 104.12 55.7901 104.662C56.0016 103.889 56.2178 103.122 56.4058 102.33C56.951 100.086 57.4351 97.7835 57.9333 95.4809C58.0367 94.9889 58.1448 94.5215 58.2529 94.0443C57.5103 93.695 54.7279 92.342 53.7315 91.171C52.7351 90.0001 51.7951 88.2485 52.0865 86.6249C52.1387 86.2442 52.2672 85.8794 52.4636 85.5544C52.66 85.2294 52.9199 84.9515 53.2262 84.7392C53.5325 84.5268 53.8783 84.3847 54.2408 84.3222C54.6033 84.2597 54.9744 84.2782 55.3295 84.3765C57.4398 85.0407 58.6759 89.0505 58.7229 91.1366C58.7229 91.2153 58.6806 91.7417 58.6289 92.3321C58.9156 91.0825 59.2164 89.8426 59.5689 88.6225C60.1307 86.5257 60.8231 84.4696 61.6416 82.4675C61.3784 82.3495 58.0884 80.8292 56.9792 79.5155C55.9969 78.3593 55.0475 76.5931 55.3342 74.9744C55.3864 74.593 55.515 74.2276 55.7117 73.902C55.9083 73.5764 56.1686 73.298 56.4753 73.0852C56.782 72.8724 57.1283 72.7299 57.4914 72.6671C57.8545 72.6044 58.2261 72.6227 58.5819 72.721C60.6875 73.3901 61.9283 77.3999 61.9706 79.486C61.9706 79.6336 61.8108 81.5426 61.7309 82.2215L61.7591 82.1527C62.6065 80.2106 63.6179 78.3516 64.7812 76.598C65.8069 75.0273 66.9196 73.5208 68.1135 72.0863C69.2086 70.7481 70.2896 69.5919 71.2484 68.5735C71.7748 68.0323 72.2636 67.5403 72.7242 67.0975H72.6772C72.6396 67.0975 73.7065 64.4899 73.7911 64.3324C74.7781 62.5219 77.678 59.6486 79.8259 60.1455C80.1834 60.2428 80.5175 60.4172 80.8068 60.6575C81.0962 60.8979 81.3343 61.1989 81.506 61.5412C81.6777 61.8835 81.7792 62.2596 81.8039 62.6454C81.8286 63.0312 81.776 63.4181 81.6495 63.7814C81.1795 65.3509 79.5345 66.4087 78.1527 66.9154C76.7709 67.4222 73.6266 67.186 72.8558 67.1122C72.3858 67.6042 71.8876 68.0962 71.3518 68.6915C70.4118 69.7247 69.359 70.9055 68.2968 72.2635C68.0148 72.6275 67.7234 73.031 67.4367 73.4147C68.0477 72.8735 68.8984 72.1454 68.9877 72.0863C70.6468 70.9646 74.4679 69.833 76.1599 71.3287C76.4352 71.5874 76.656 71.9031 76.8085 72.2559C76.961 72.6087 77.0418 72.9908 77.0458 73.3779C77.0498 73.7651 76.9769 74.149 76.8316 74.5051C76.6864 74.8612 76.4721 75.1819 76.2022 75.4467C75.0977 76.6078 73.1895 76.7456 71.7372 76.5193C70.2849 76.2929 67.5072 74.4824 66.9291 74.0839C66.304 74.9399 65.6789 75.8403 65.0773 76.8194C63.965 78.5783 63.004 80.4372 62.2056 82.3741C62.1586 82.4872 62.1257 82.6053 62.0834 82.7185C62.3419 82.3987 63.8835 80.7505 64.0057 80.6373C65.5379 79.3286 69.218 77.7591 71.0557 79.0481C71.3562 79.274 71.6085 79.5627 71.7967 79.896C71.985 80.2292 72.105 80.5999 72.1492 80.9843C72.1934 81.3687 72.1608 81.7585 72.0535 82.129C71.9461 82.4995 71.7664 82.8427 71.5257 83.1367C70.5481 84.4159 68.6634 84.775 67.197 84.7209C65.5097 84.6569 62.1821 82.871 62.0599 82.8021C61.3113 84.7571 60.6833 86.7604 60.1799 88.7996C59.7992 90.31 59.4749 91.8549 59.16 93.4096C59.5078 92.9963 60.9413 91.4416 61.04 91.358C62.5722 90.0493 66.2523 88.4798 68.09 89.7688C68.3905 89.9946 68.6428 90.2833 68.831 90.6166C69.0193 90.9499 69.1393 91.3205 69.1835 91.7049C69.2277 92.0893 69.1951 92.4792 69.0877 92.8497C68.9804 93.2202 68.8007 93.5633 68.56 93.8573C67.5824 95.1365 65.6977 95.5006 64.236 95.4416C62.5863 95.3776 59.3903 93.6802 59.1224 93.5375C58.9767 94.2411 58.8357 94.9496 58.6947 95.6581C58.2247 97.9705 57.8064 100.288 57.2847 102.546C57.1108 103.333 56.9134 104.101 56.716 104.878C57.2565 104.278 58.2529 103.205 58.3516 103.127C59.8791 101.818 63.5639 100.248 65.4016 101.533C65.7022 101.759 65.9546 102.048 66.1429 102.382C66.3312 102.715 66.4512 103.086 66.4954 103.471C66.5396 103.856 66.5069 104.246 66.3996 104.617C66.2922 104.988 66.1124 105.332 65.8716 105.626C64.8893 106.905 63.0093 107.264 61.5429 107.21C60.0765 107.156 57.3552 105.788 56.5938 105.39C56.2601 106.674 55.9029 107.938 55.494 109.168C55.3107 109.69 55.1509 110.241 54.9441 110.733L54.6339 111.52C54.9065 111.486 55.0616 111.476 55.0616 111.476C55.0616 111.476 55.0898 112.204 55.024 113.395C56.6408 112.17 58.9673 111.117 60.4854 111.855C60.8145 112.031 61.1049 112.278 61.3382 112.578C61.5715 112.879 61.7427 113.227 61.8408 113.6C61.9389 113.973 61.9618 114.364 61.9081 114.747C61.8544 115.13 61.7253 115.497 61.5288 115.825C61.4298 115.999 61.3166 116.164 61.1904 116.317C60.9055 118.124 60.1875 119.825 59.1036 121.262C59.019 121.365 57.9239 122.443 57.3505 122.979C57.9051 122.659 58.455 122.344 59.0237 121.995C59.8509 121.503 60.7063 120.967 61.5382 120.445L62.8213 119.574C63.2584 119.289 63.6485 118.959 64.0715 118.649C64.6825 118.182 65.2888 117.665 65.8951 117.173C65.3781 116.312 63.907 113.729 63.6908 112.253C63.4746 110.777 63.5921 108.676 64.6778 107.496C64.9216 107.209 65.221 106.98 65.556 106.824C65.8911 106.668 66.254 106.589 66.6206 106.592C66.9872 106.595 67.3491 106.679 67.6819 106.84C68.0147 107.001 68.3109 107.235 68.5506 107.525C69.9606 109.316 68.9172 113.385 67.8691 115.156C67.8362 115.21 67.5777 115.559 67.2675 115.973C67.8456 115.451 68.4237 114.935 68.9924 114.389C70.6092 112.834 72.2072 111.2 73.8193 109.572L74.8298 108.558C74.3927 107.835 72.7712 105.075 72.5503 103.51C72.3294 101.946 72.4516 99.9335 73.5326 98.7527C73.7764 98.466 74.0758 98.2371 74.4108 98.0813C74.7458 97.9254 75.1088 97.8462 75.4754 97.849C75.842 97.8518 76.2039 97.9365 76.5367 98.0975C76.8695 98.2584 77.1657 98.4919 77.4054 98.7823C78.8154 100.573 77.772 104.642 76.7286 106.413C76.691 106.477 76.3808 106.905 76.033 107.353C76.9213 106.482 77.8143 105.621 78.7261 104.799C80.28 103.373 81.924 102.058 83.647 100.863C83.4872 100.608 81.5273 97.4194 81.297 95.6728C81.0761 94.1329 81.1983 92.1009 82.2793 90.9201C82.5227 90.6331 82.8219 90.4038 83.1567 90.2475C83.4916 90.0913 83.8545 90.0116 84.2211 90.014C84.5877 90.0163 84.9496 90.1005 85.2826 90.261C85.6156 90.4215 85.9121 90.6546 86.1521 90.9447C87.5621 92.7405 86.5187 96.8093 85.4753 98.5756C85.4001 98.7035 84.2721 100.199 83.8538 100.721L83.9149 100.676C85.6299 99.5554 87.4372 98.5971 89.3152 97.813C90.9797 97.1237 92.6808 96.5356 94.41 96.0517C96.0221 95.5597 97.5167 95.2448 98.8468 94.9643C99.5659 94.8167 100.229 94.6937 100.849 94.5904L100.811 94.5609C100.779 94.5314 103.02 92.9865 103.161 92.9078C104.924 91.9779 108.834 91.2793 110.367 92.957C110.615 93.2435 110.804 93.5811 110.921 93.9482C111.039 94.3154 111.082 94.7041 111.048 95.0896C111.014 95.4751 110.903 95.8489 110.724 96.1873C110.544 96.5258 110.299 96.8214 110.005 97.0553C108.787 98.0836 106.879 98.0098 105.46 97.6211C104.04 97.2325 101.545 95.1907 100.938 94.6691C100.299 94.7921 99.6176 94.9299 98.8656 95.1021C97.5449 95.4121 96.0456 95.7761 94.4664 96.2878C94.0434 96.4256 93.5922 96.5879 93.1504 96.7404C93.9447 96.6519 95.0304 96.5437 95.1385 96.5437C97.0984 96.583 100.873 97.8819 101.512 100.121C101.606 100.492 101.625 100.879 101.569 101.259C101.512 101.639 101.381 102.002 101.184 102.325C100.986 102.649 100.727 102.926 100.421 103.14C100.116 103.353 99.7722 103.498 99.4109 103.565C97.8881 103.879 96.2242 102.876 95.1291 101.833C94.034 100.79 92.6663 97.6605 92.3843 96.9815C91.4161 97.3309 90.4291 97.7146 89.4186 98.1771C87.5792 98.9921 85.8141 99.9802 84.1452 101.129C84.0465 101.198 83.9572 101.277 83.8585 101.346C84.2439 101.232 86.3918 100.75 86.5469 100.736C88.5021 100.544 92.3843 101.395 93.2491 103.55C93.3848 103.909 93.4472 104.294 93.4323 104.681C93.4174 105.067 93.3256 105.446 93.1628 105.793C93 106.14 92.7697 106.447 92.4867 106.695C92.2037 106.944 91.8743 107.128 91.5195 107.235C90.039 107.727 88.2812 106.925 87.0874 106.015C85.715 104.972 83.8632 101.528 83.7974 101.395C82.1605 102.591 80.5985 103.896 79.1209 105.301C78.0211 106.334 76.9495 107.432 75.8826 108.544C76.3855 108.406 78.383 107.963 78.5287 107.948C80.4839 107.756 84.3708 108.607 85.2309 110.758C85.3666 111.117 85.429 111.502 85.4141 111.889C85.3992 112.275 85.3074 112.654 85.1446 113C84.9818 113.347 84.7515 113.655 84.4685 113.903C84.1855 114.152 83.8561 114.335 83.5013 114.443C82.0208 114.935 80.263 114.133 79.0739 113.227C77.7297 112.204 75.9437 108.913 75.7839 108.637L74.3316 110.152C72.7618 111.82 71.1873 113.498 69.5893 115.102C69.0394 115.658 68.4754 116.184 67.9114 116.711C68.6681 116.529 70.0593 116.219 70.1815 116.219C72.1367 116.027 76.0189 116.878 76.8837 119.033C77.0194 119.393 77.0818 119.778 77.0669 120.164C77.052 120.55 76.9602 120.929 76.7974 121.276C76.6346 121.623 76.4043 121.93 76.1213 122.179C75.8383 122.427 75.5089 122.611 75.1541 122.718C73.6736 123.21 71.9158 122.408 70.722 121.498C69.5282 120.588 67.9678 117.857 67.5354 117.07C66.5954 117.946 65.6554 118.787 64.6637 119.574C64.236 119.899 63.8177 120.263 63.39 120.558L62.1304 121.459C61.2468 122.039 60.429 122.58 59.5924 123.102C59.1741 123.367 58.7699 123.594 58.361 123.859C59.1036 123.55 60.288 123.082 60.4008 123.053C62.309 122.561 66.2664 122.762 67.4273 124.75C67.6148 125.086 67.7332 125.458 67.7747 125.845C67.8162 126.231 67.78 126.622 67.6685 126.993C67.5569 127.364 67.3724 127.706 67.1269 127.997C66.8814 128.289 66.5803 128.524 66.2429 128.686C64.8329 129.409 62.9999 128.898 61.6886 128.194C60.2457 127.417 58.079 124.558 57.8111 124.209C56.8053 124.819 55.8183 125.404 54.883 125.936C52.392 127.353 50.2159 128.484 48.5286 129.331C43.0437 134.374 35.3263 134.929 35.3263 134.929C35.3263 134.929 34.9221 125.089 40.3647 118.625C42.2599 116.455 44.5905 114.751 47.1891 113.636ZM56.9792 123.225C56.81 122.821 55.494 119.697 55.4047 117.936C55.0992 117.877 54.7937 117.808 54.4976 117.734C53.9414 120.835 52.7815 123.782 51.0901 126.393C52.0865 125.901 53.1675 125.331 54.3143 124.711C55.165 124.253 56.0627 123.751 56.9792 123.225Z" fill="white"/>
<path d="M6.75029 111.756C6.75029 111.756 15.9952 112.056 21.6587 118.315C27.3222 124.573 27.247 134.413 27.247 134.413C27.247 134.413 18.0021 134.113 12.3386 127.855C6.67509 121.596 6.75029 111.756 6.75029 111.756Z" fill="white"/>
</g>
<g opacity="0.2">
<path d="M30.9037 118.093L21.8186 109.404L22.2087 108.942L30.9084 117.267L30.9554 105.877L30.9084 105.911L23.2239 93.9606L23.7033 93.6113L30.9601 104.893L31.0682 77.4983H31.651L31.5758 96.0959L37.3568 90.7725L37.7422 91.2398L31.5711 96.9175L31.5194 110.216L40.2849 101.965L40.6703 102.428L31.5147 111.043L31.4677 123.151L38.0524 117.65L38.4143 118.137L31.463 123.943L31.4301 131.736L30.8473 131.731L30.9037 118.093Z" fill="black"/>
<path d="M39.2697 121.449L39.8478 121.375L40.581 128.258L44.482 123.618H44.4773L45.4643 115.289L46.0424 115.368L45.1588 122.816L54.8502 111.289L55.2873 111.702L48.7073 119.525L52.8715 119.579L52.8668 120.199L48.195 120.135L43.5796 125.621L50.0938 125.631V126.251L43.0626 126.241L38.8655 131.23L43.4621 131.525L43.4245 132.14L38.372 131.82L35.5802 135.141L35.1431 134.728L40.064 128.878L39.2697 121.449Z" fill="black"/>
<path d="M17.3206 123.899L9.58912 122.231L9.70662 121.621L16.625 123.117L6.53882 111.973L6.95712 111.54L13.8003 119.102L14.1622 114.689L14.7403 114.743L14.3361 119.697L19.1348 124.996L19.6283 118.088L20.2111 118.138L19.6753 125.596L24.0369 130.418L24.6573 125.567L25.2307 125.65L24.5539 130.989L27.4585 134.196L27.0402 134.629L21.9219 128.971L14.9001 129.262L14.8766 128.642L21.3814 128.376L17.3253 123.889L17.3206 123.899Z" fill="black"/>
</g>
<path d="M55.3389 136.361L-2.25488 145.98L103.852 165.222L190.76 149.478L55.3389 136.361Z" fill="#1D5EC0"/>
<path opacity="0.15" d="M91.9849 151.343C108.177 151.343 121.303 149.706 121.303 147.687C121.303 145.668 108.177 144.031 91.9849 144.031C75.7926 144.031 62.6663 145.668 62.6663 147.687C62.6663 149.706 75.7926 151.343 91.9849 151.343Z" fill="black"/>
<path d="M89.5409 108.042C89.5409 108.042 87.0969 108.775 79.5956 108.593C72.0944 108.411 61.2657 104.755 57.0827 104.755C52.8997 104.755 48.3501 106.398 46.6111 110.054C44.8721 113.71 43.2928 118.275 53.4166 122.477C63.5405 126.679 71.2156 127.958 85.701 131.791C100.186 135.623 105.944 135.81 113.431 133.803C120.918 131.795 125.994 126.679 125.298 119.535C124.603 112.391 123.028 108.027 119.367 106.93C115.706 105.833 89.5409 108.042 89.5409 108.042Z" fill="#263238" stroke="#263238" stroke-linecap="round" stroke-linejoin="round"/>
<path d="M101.248 49.8527C101.248 49.8527 101.512 53.3262 100.586 55.2647C99.6598 57.2032 95.9374 59.1564 92.7508 60.9621C89.5642 62.7677 85.0522 62.4922 83.1957 65.5475C81.3392 68.6028 81.4708 73.7442 81.4708 73.7442C81.4708 73.7442 78.5474 78.4724 76.1598 82.6396C73.7722 86.8068 72.4421 91.1168 75.4971 93.4636C78.5521 95.8104 82.2651 92.3517 84.2579 89.0356C86.2507 85.7195 88.1072 81.9508 88.1072 81.9508C88.1072 81.9508 90.6499 94.856 89.9637 98.3442C89.2775 101.833 87.7077 105.154 87.7077 106.708C87.7077 108.263 88.9015 109.35 90.7627 109.764C92.6239 110.177 98.9924 110.748 103.373 110.462C107.753 110.177 120.232 109.35 120.763 107.54C121.294 105.729 122.088 93.2274 122.088 93.2274C122.088 93.2274 129.918 96.0072 132.311 91.0085C134.703 86.0098 134.83 74.7725 133.105 69.1883C131.38 63.6041 126.995 61.5476 124.344 60.1601C121.693 58.7727 114.39 55.1565 113.064 53.6264C111.739 52.0962 111.33 44.5686 111.33 42.0693C111.33 39.5699 111.067 41.9315 108.543 43.8749C106.019 45.8183 101.248 49.8527 101.248 49.8527Z" fill="white"/>
<mask id="mask0_96_459" style="mask-type:luminance" maskUnits="userSpaceOnUse" x="73" y="40" width="62" height="71">
<path d="M101.248 49.8527C101.248 49.8527 101.512 53.3262 100.586 55.2647C99.6598 57.2032 95.9374 59.1564 92.7508 60.9621C89.5642 62.7677 85.0522 62.4922 83.1957 65.5475C81.3392 68.6028 81.4708 73.7442 81.4708 73.7442C81.4708 73.7442 78.5474 78.4724 76.1598 82.6396C73.7722 86.8068 72.4421 91.1168 75.4971 93.4636C78.5521 95.8104 82.2651 92.3517 84.2579 89.0356C86.2507 85.7195 88.1072 81.9508 88.1072 81.9508C88.1072 81.9508 90.6499 94.856 89.9637 98.3442C89.2775 101.833 87.7077 105.154 87.7077 106.708C87.7077 108.263 88.9015 109.35 90.7627 109.764C92.6239 110.177 98.9924 110.748 103.373 110.462C107.753 110.177 120.232 109.35 120.763 107.54C121.294 105.729 122.088 93.2274 122.088 93.2274C122.088 93.2274 129.918 96.0072 132.311 91.0085C134.703 86.0098 134.83 74.7725 133.105 69.1883C131.38 63.6041 126.995 61.5476 124.344 60.1601C121.693 58.7727 114.39 55.1565 113.064 53.6264C111.739 52.0962 111.33 44.5686 111.33 42.0693C111.33 39.5699 111.067 41.9315 108.543 43.8749C106.019 45.8183 101.248 49.8527 101.248 49.8527Z" fill="white"/>
</mask>
<g mask="url(#mask0_96_459)">
<path d="M133.105 69.1637C131.38 63.609 126.995 61.523 124.344 60.1355C121.693 58.7481 114.39 55.1319 113.064 53.6018C111.739 52.0716 111.33 44.5686 111.33 42.0693C111.33 39.5699 111.067 41.9315 108.543 43.8749C106.019 45.8183 101.244 49.8527 101.244 49.8527C101.293 50.6407 101.293 51.4312 101.244 52.2192C102.752 52.9031 104.75 53.6952 105.864 53.6952C107.805 53.6952 108.388 55.1171 109.154 56.539C109.92 57.9609 108.571 59.5845 108.571 59.5845C108.571 59.5845 114.78 59.9928 116.913 60.598C119.047 61.2032 124.673 62.0199 128.165 65.0703C130.924 67.4712 132.832 71.8943 134.087 74.7528C133.952 72.8584 133.622 70.9846 133.105 69.1637Z" fill="#1D5EC0"/>
<path opacity="0.6" d="M133.105 69.1637C131.38 63.609 126.995 61.523 124.344 60.1355C121.693 58.7481 114.39 55.1319 113.064 53.6018C111.739 52.0716 111.33 44.5686 111.33 42.0693C111.33 39.5699 111.067 41.9315 108.543 43.8749C106.019 45.8183 101.244 49.8527 101.244 49.8527C101.293 50.6407 101.293 51.4312 101.244 52.2192C102.752 52.9031 104.75 53.6952 105.864 53.6952C107.805 53.6952 108.388 55.1171 109.154 56.539C109.92 57.9609 108.571 59.5845 108.571 59.5845C108.571 59.5845 114.78 59.9928 116.913 60.598C119.047 61.2032 124.673 62.0199 128.165 65.0703C130.924 67.4712 132.832 71.8943 134.087 74.7528C133.952 72.8584 133.622 70.9846 133.105 69.1637Z" fill="white"/>
</g>
<path d="M101.248 49.8527C101.248 49.8527 101.512 53.3262 100.586 55.2647C99.6598 57.2032 95.9374 59.1564 92.7508 60.9621C89.5642 62.7677 85.0522 62.4922 83.1957 65.5475C81.3392 68.6028 81.4708 73.7442 81.4708 73.7442C81.4708 73.7442 78.5474 78.4724 76.1598 82.6396C73.7722 86.8068 72.4421 91.1168 75.4971 93.4636C78.5521 95.8104 82.2651 92.3517 84.2579 89.0356C86.2507 85.7195 88.1072 81.9508 88.1072 81.9508C88.1072 81.9508 90.6499 94.856 89.9637 98.3442C89.2775 101.833 87.7077 105.154 87.7077 106.708C87.7077 108.263 88.9015 109.35 90.7627 109.764C92.6239 110.177 98.9924 110.748 103.373 110.462C107.753 110.177 120.232 109.35 120.763 107.54C121.294 105.729 122.088 93.2274 122.088 93.2274C122.088 93.2274 129.918 96.0072 132.311 91.0085C134.703 86.0098 134.83 74.7725 133.105 69.1883C131.38 63.6041 126.995 61.5476 124.344 60.1601C121.693 58.7727 114.39 55.1565 113.064 53.6264C111.739 52.0962 111.33 44.5686 111.33 42.0693C111.33 39.5699 111.067 41.9315 108.543 43.8749C106.019 45.8183 101.248 49.8527 101.248 49.8527Z" stroke="#263238" stroke-linecap="round" stroke-linejoin="round"/>
<path d="M119.832 33.5922C120.894 31.511 122.488 27.8949 120.363 25.3955C118.239 22.8961 116.913 24.4115 116.646 21.922C116.378 19.4325 115.851 16.7806 113.459 16.7806C111.067 16.7806 109.346 17.7646 107.885 16.7806C106.423 15.7966 105.229 13.0266 101.512 13.0266C97.7938 13.0266 97.7985 19.0044 97.1311 19.6981C96.8029 19.9459 96.4353 20.1309 96.0454 20.2443C95.9071 20.2081 95.778 20.1404 95.6675 20.046C95.557 19.9516 95.4678 19.8328 95.4062 19.6981C94.7435 18.3107 96.6 18.4485 97.399 16.3624C98.198 14.2763 95.9373 12.8889 94.344 14.1385C92.7507 15.3882 96.0689 15.2505 94.2124 17.3365C92.3559 19.4226 91.2937 21.922 92.9998 24.9921C94.7059 28.0621 96.7175 26.2417 96.7175 26.2417C97.1123 25.9662 97.4695 27.5308 101.009 28.2097C104.379 28.8542 106.682 27.7177 106.949 31.5947C107.217 35.4717 110.521 37.6414 111.452 38.1973C112.383 38.7533 109.99 41.8135 110.512 43.201C111.034 44.5884 112.768 44.4507 113.83 44.3129C114.892 44.1751 114.23 42.5073 116.486 42.2268C118.742 41.9464 119.536 41.2428 120.467 38.6155C121.397 35.9883 118.77 35.6783 119.832 33.5922Z" fill="#263238" stroke="#263238" stroke-linecap="round" stroke-linejoin="round"/>
<path d="M119.376 29.848C119.782 29.8978 120.19 29.7892 120.523 29.543" stroke="white" stroke-linecap="round" stroke-linejoin="round"/>
<path d="M111.222 24.1901C111.222 24.1901 113.572 22.2221 114.944 24.6821C115.786 26.1581 116.881 28.1261 118.075 29.179" stroke="white" stroke-linecap="round" stroke-linejoin="round"/>
<path d="M110.061 31.0043C111.517 30.7193 113.002 30.6365 114.479 30.7583C116.571 31.0043 116.359 32.7263 118.662 32.7263" stroke="white" stroke-linecap="round" stroke-linejoin="round"/>
<path d="M100.355 21.7793C100.551 22.0295 100.772 22.2571 101.013 22.4583" stroke="white" stroke-linecap="round" stroke-linejoin="round"/>
<path d="M109.967 21.8038C109.967 21.8038 109.365 23.944 107.039 21.0265C104.712 18.1089 103.1 14.7289 100.459 17.6267C100.143 17.9238 99.898 18.2947 99.7445 18.7093C99.5909 19.1239 99.5329 19.5705 99.5752 20.0129" stroke="white" stroke-linecap="round" stroke-linejoin="round"/>
<path d="M94.4851 22.5961C94.2557 22.0999 94.0973 21.5711 94.0151 21.0266" stroke="white" stroke-linecap="round" stroke-linejoin="round"/>
<path d="M98.6681 24.9182C98.6681 24.9182 96.4356 25.1937 95.0303 23.4668" stroke="white" stroke-linecap="round" stroke-linejoin="round"/>
<path d="M124.344 60.1355C122.276 59.0482 117.379 56.6128 114.695 54.8711C113.812 57.646 111.217 64.0223 106.028 64.0223C101.244 64.0223 99.8385 59.3385 99.4484 56.7161C97.8598 58.1921 95.1667 59.6091 92.7697 60.967C89.5878 62.7726 85.0711 62.4971 83.2146 65.5524C81.3581 68.6077 81.4897 73.7491 81.4897 73.7491C81.4897 73.7491 80.5027 75.3481 79.2102 77.4982C84.5729 77.2177 88.1402 81.9508 88.1402 81.9508C88.1402 81.9508 90.65 94.8559 89.9638 98.3442C89.2776 101.832 87.7078 105.153 87.7078 106.708C87.7078 108.263 88.9016 109.35 90.7628 109.764C92.624 110.177 98.9925 110.748 103.373 110.462C107.753 110.177 120.232 109.35 120.763 107.54C121.294 105.729 122.088 93.2274 122.088 93.2274L121.294 82.2509C127.963 77.6359 132.626 80.8684 134.153 82.2509C134.482 77.5326 134.106 72.4109 133.105 69.1834C131.38 63.609 127 61.5229 124.344 60.1355Z" fill="#1D5EC0"/>
<mask id="mask1_96_459" style="mask-type:luminance" maskUnits="userSpaceOnUse" x="79" y="54" width="56" height="57">
<path d="M124.344 60.1355C122.276 59.0482 117.379 56.6128 114.695 54.8711C113.812 57.646 111.217 64.0223 106.028 64.0223C101.244 64.0223 99.8385 59.3385 99.4484 56.7161C97.8598 58.1921 95.1667 59.6091 92.7697 60.967C89.5878 62.7726 85.0711 62.4971 83.2146 65.5524C81.3581 68.6077 81.4897 73.7491 81.4897 73.7491C81.4897 73.7491 80.5027 75.3481 79.2102 77.4982C84.5729 77.2177 88.1402 81.9508 88.1402 81.9508C88.1402 81.9508 90.65 94.8559 89.9638 98.3442C89.2776 101.832 87.7078 105.153 87.7078 106.708C87.7078 108.263 88.9016 109.35 90.7628 109.764C92.624 110.177 98.9925 110.748 103.373 110.462C107.753 110.177 120.232 109.35 120.763 107.54C121.294 105.729 122.088 93.2274 122.088 93.2274L121.294 82.2509C127.963 77.6359 132.626 80.8684 134.153 82.2509C134.482 77.5326 134.106 72.4109 133.105 69.1834C131.38 63.609 127 61.5229 124.344 60.1355Z" fill="white"/>
</mask>
<g mask="url(#mask1_96_459)">
<path opacity="0.15" d="M133.105 69.1637C131.38 63.609 126.995 61.523 124.344 60.1355C121.693 58.7481 114.39 55.1319 113.064 53.6018C111.739 52.0716 111.33 44.5686 111.33 42.0693C111.33 39.5699 111.067 41.9315 108.543 43.8749C106.019 45.8183 101.244 49.8527 101.244 49.8527C101.293 50.6407 101.293 51.4312 101.244 52.2192C102.752 52.9031 104.75 53.6952 105.864 53.6952C107.805 53.6952 108.388 55.1171 109.154 56.539C109.92 57.9609 108.571 59.5845 108.571 59.5845C108.571 59.5845 114.78 59.9928 116.913 60.598C119.047 61.2032 124.673 62.0199 128.165 65.0703C130.924 67.4712 132.832 71.8943 134.087 74.7528C133.952 72.8584 133.622 70.9846 133.105 69.1637Z" fill="black"/>
<path opacity="0.15" d="M114.982 60.416C114.982 60.416 113.041 64.2733 109.342 65.4935C107.219 66.2253 104.952 66.366 102.762 65.9018C102.762 65.9018 105.478 67.5254 109.553 66.5119C113.628 65.4984 114.982 60.416 114.982 60.416Z" fill="black"/>
<path opacity="0.15" d="M120.415 79.5006C120.415 79.5006 120.608 85.9999 118.281 87.6235C115.955 89.2471 108.58 90.669 105.671 89.8572C102.762 89.0454 100.031 84.7798 97.3286 85.5916C94.6261 86.4034 89.9543 91.6874 89.9543 91.6874L90.147 95.343L98.4895 91.0774C98.4895 91.0774 104.13 94.5214 110.324 98.7919C116.519 103.062 110.714 104.076 110.714 104.076L102.955 107.121C102.955 107.121 107.998 105.09 111.885 105.09C115.771 105.09 113.243 105.901 113.243 105.901H120.612L120.768 107.515L122.178 97.5767L121.787 85.5916C121.787 85.5916 121.388 77.4686 120.415 79.5006Z" fill="black"/>
</g>
<path d="M124.344 60.1355C122.276 59.0482 117.379 56.6128 114.695 54.8711C113.812 57.646 111.217 64.0223 106.028 64.0223C101.244 64.0223 99.8385 59.3385 99.4484 56.7161C97.8598 58.1921 95.1667 59.6091 92.7697 60.967C89.5878 62.7726 85.0711 62.4971 83.2146 65.5524C81.3581 68.6077 81.4897 73.7491 81.4897 73.7491C81.4897 73.7491 80.5027 75.3481 79.2102 77.4982C84.5729 77.2177 88.1402 81.9508 88.1402 81.9508C88.1402 81.9508 90.65 94.8559 89.9638 98.3442C89.2776 101.832 87.7078 105.153 87.7078 106.708C87.7078 108.263 88.9016 109.35 90.7628 109.764C92.624 110.177 98.9925 110.748 103.373 110.462C107.753 110.177 120.232 109.35 120.763 107.54C121.294 105.729 122.088 93.2274 122.088 93.2274L121.294 82.2509C127.963 77.6359 132.626 80.8684 134.153 82.2509C134.482 77.5326 134.106 72.4109 133.105 69.1834C131.38 63.609 127 61.5229 124.344 60.1355Z" stroke="#263238" stroke-linecap="round" stroke-linejoin="round"/>
<path d="M88.1072 81.951C88.1072 81.951 86.0533 75.3434 86.9228 71.8699" stroke="#263238" stroke-linecap="round" stroke-linejoin="round"/>
<path d="M121.294 82.2264C120.805 79.6353 120.928 76.9585 121.651 74.4282" stroke="#263238" stroke-linecap="round" stroke-linejoin="round"/>
<path d="M90.7627 109.739C90.7627 109.739 97.2205 108.755 101.573 107.677" stroke="#263238" stroke-linecap="round" stroke-linejoin="round"/>
<path d="M75.3186 85.508C75.3186 85.508 74.0073 86.2362 72.9686 88.8881C71.9299 91.54 70.6186 96.4649 71.9205 98.0196C73.2224 99.5743 76.1975 98.2016 78.9705 97.8376C81.7435 97.4735 93.3666 90.3493 95.2842 89.1587C97.2018 87.968 98.7763 87.5154 99.3873 86.4182C99.9983 85.3211 99.8245 81.3949 99.9091 79.4761C99.9937 77.5573 99.5612 68.9719 99.5612 68.9719C99.5612 68.9719 98.9502 66.8711 97.9021 67.0531C97.9021 67.0531 96.6801 66.325 96.4216 67.0531L95.8952 68.5291C95.8952 68.5291 94.7625 68.165 94.4852 68.8046C94.2959 69.4272 94.1791 70.0715 94.1374 70.7234C94.1374 70.7234 92.8308 71.363 92.8308 72.1994C92.8308 73.0358 93.0893 77.9558 93.0893 79.3236C93.0893 80.6914 92.9154 82.7971 93.3525 83.7073C93.7896 84.6175 94.2267 85.4441 94.2267 85.4441C94.2267 85.4441 87.8535 86.3592 85.151 86.3592C82.4485 86.3592 77.7344 86.4478 76.8602 86.9053" fill="white"/>
<mask id="mask2_96_459" style="mask-type:luminance" maskUnits="userSpaceOnUse" x="71" y="66" width="29" height="33">
<path d="M75.3186 85.508C75.3186 85.508 74.0073 86.2362 72.9686 88.8881C71.9299 91.54 70.6186 96.4649 71.9205 98.0196C73.2224 99.5743 76.1975 98.2016 78.9705 97.8376C81.7435 97.4735 93.3666 90.3493 95.2842 89.1587C97.2018 87.968 98.7763 87.5154 99.3873 86.4182C99.9983 85.3211 99.8245 81.3949 99.9091 79.4761C99.9937 77.5573 99.5612 68.9719 99.5612 68.9719C99.5612 68.9719 98.9502 66.8711 97.9021 67.0531C97.9021 67.0531 96.6801 66.325 96.4216 67.0531L95.8952 68.5291C95.8952 68.5291 94.7625 68.165 94.4852 68.8046C94.2959 69.4272 94.1791 70.0715 94.1374 70.7234C94.1374 70.7234 92.8308 71.363 92.8308 72.1994C92.8308 73.0358 93.0893 77.9558 93.0893 79.3236C93.0893 80.6914 92.9154 82.7971 93.3525 83.7073C93.7896 84.6175 94.2267 85.4441 94.2267 85.4441C94.2267 85.4441 87.8535 86.3592 85.151 86.3592C82.4485 86.3592 77.7344 86.4478 76.8602 86.9053" fill="white"/>
</mask>
<g mask="url(#mask2_96_459)">
<path d="M99.4015 86.3935C99.707 85.8425 99.8198 84.5731 99.8715 83.2004L95.6791 84.1549C95.6791 84.1549 96.1068 86.1623 93.7568 87.7268C91.4068 89.2914 78.6181 93.7538 77.7768 93.9752C76.9355 94.1966 85.8843 89.9605 82.4768 90.1819C79.0693 90.4033 75.0085 94.2016 72.6632 94.2016C72.2878 94.2043 71.9142 94.1496 71.554 94.0392C71.2955 95.7218 71.3143 97.247 71.9441 97.9752C73.2507 99.5299 76.2211 98.1572 78.9941 97.7932C81.7671 97.4291 93.3902 90.3049 95.3078 89.1143C97.2254 87.9236 98.7905 87.4759 99.4015 86.3935Z" fill="#1D5EC0"/>
<path opacity="0.6" d="M99.4015 86.3935C99.707 85.8425 99.8198 84.5731 99.8715 83.2004L95.6791 84.1549C95.6791 84.1549 96.1068 86.1623 93.7568 87.7268C91.4068 89.2914 78.6181 93.7538 77.7768 93.9752C76.9355 94.1966 85.8843 89.9605 82.4768 90.1819C79.0693 90.4033 75.0085 94.2016 72.6632 94.2016C72.2878 94.2043 71.9142 94.1496 71.554 94.0392C71.2955 95.7218 71.3143 97.247 71.9441 97.9752C73.2507 99.5299 76.2211 98.1572 78.9941 97.7932C81.7671 97.4291 93.3902 90.3049 95.3078 89.1143C97.2254 87.9236 98.7905 87.4759 99.4015 86.3935Z" fill="white"/>
</g>
<path d="M75.3186 85.508C75.3186 85.508 74.0073 86.2362 72.9686 88.8881C71.9299 91.54 70.6186 96.4649 71.9205 98.0196C73.2224 99.5743 76.1975 98.2016 78.9705 97.8376C81.7435 97.4735 93.3666 90.3493 95.2842 89.1587C97.2018 87.968 98.7763 87.5154 99.3873 86.4182C99.9983 85.3211 99.8245 81.3949 99.9091 79.4761C99.9937 77.5573 99.5612 68.9719 99.5612 68.9719C99.5612 68.9719 98.9502 66.8711 97.9021 67.0531C97.9021 67.0531 96.6801 66.325 96.4216 67.0531L95.8952 68.5291C95.8952 68.5291 94.7625 68.165 94.4852 68.8046C94.2959 69.4272 94.1791 70.0715 94.1374 70.7234C94.1374 70.7234 92.8308 71.363 92.8308 72.1994C92.8308 73.0358 93.0893 77.9558 93.0893 79.3236C93.0893 80.6914 92.9154 82.7971 93.3525 83.7073C93.7896 84.6175 94.2267 85.4441 94.2267 85.4441C94.2267 85.4441 87.8535 86.3592 85.151 86.3592C82.4485 86.3592 77.7344 86.4478 76.8602 86.9053" stroke="#263238" stroke-linecap="round" stroke-linejoin="round"/>
<path d="M128.372 89.9361C124.185 87.1071 115.457 89.2965 112.665 89.1145C109.873 88.9324 102.109 84.4552 102.109 84.4552C102.109 84.4552 103.678 82.8119 103.763 81.8083C103.848 80.8046 103.763 78.0641 103.763 76.5094C103.763 74.9547 104.2 73.4049 104.289 72.2192C104.379 71.0335 102.879 71.8502 102.63 72.2192C102.381 72.5882 101.756 76.2339 101.756 76.2339C101.756 76.2339 100.971 73.7739 100.971 73.4984C100.971 73.2229 100.797 69.8428 100.36 68.4701C99.9231 67.0975 98.8797 68.4701 98.8797 68.4701C98.7904 67.6485 98.5272 66.9941 97.9162 66.9941C97.3052 66.9941 96.7835 69.2819 96.7835 69.2819C96.7835 67.9093 96.3464 68.0027 95.9093 68.4554C95.4722 68.908 95.4769 71.9289 95.4769 71.9289L94.9505 71.1073C94.3395 70.9252 94.0105 71.9289 94.0105 72.844C94.0105 73.7591 94.3583 76.4947 94.3583 78.7775C94.3328 79.9417 94.421 81.1056 94.6215 82.2511C95.004 83.85 95.6531 85.3656 96.5391 86.7283C98.0243 89.0111 102.997 91.8401 106.052 94.3051C109.107 96.77 118.093 100.883 122.544 101.616C126.995 102.349 130.064 104.076 131.093 102.074C132.123 100.071 134.059 90.1969 133.1 86.9103" fill="white"/>
<mask id="mask3_96_459" style="mask-type:luminance" maskUnits="userSpaceOnUse" x="94" y="66" width="40" height="38">
<path d="M128.372 89.9361C124.185 87.1071 115.457 89.2965 112.665 89.1145C109.873 88.9324 102.109 84.4552 102.109 84.4552C102.109 84.4552 103.678 82.8119 103.763 81.8083C103.848 80.8046 103.763 78.0641 103.763 76.5094C103.763 74.9547 104.2 73.4049 104.289 72.2192C104.379 71.0335 102.879 71.8502 102.63 72.2192C102.381 72.5882 101.756 76.2339 101.756 76.2339C101.756 76.2339 100.971 73.7739 100.971 73.4984C100.971 73.2229 100.797 69.8428 100.36 68.4701C99.9231 67.0975 98.8797 68.4701 98.8797 68.4701C98.7904 67.6485 98.5272 66.9941 97.9162 66.9941C97.3052 66.9941 96.7835 69.2819 96.7835 69.2819C96.7835 67.9093 96.3464 68.0027 95.9093 68.4554C95.4722 68.908 95.4769 71.9289 95.4769 71.9289L94.9505 71.1073C94.3395 70.9252 94.0105 71.9289 94.0105 72.844C94.0105 73.7591 94.3583 76.4947 94.3583 78.7775C94.3328 79.9417 94.421 81.1056 94.6215 82.2511C95.004 83.85 95.6531 85.3656 96.5391 86.7283C98.0243 89.0111 102.997 91.8401 106.052 94.3051C109.107 96.77 118.093 100.883 122.544 101.616C126.995 102.349 130.064 104.076 131.093 102.074C132.123 100.071 134.059 90.1969 133.1 86.9103" fill="white"/>
</mask>
<g mask="url(#mask3_96_459)">
<path d="M122.525 101.651C126.976 102.379 130.045 104.111 131.075 102.108C131.817 100.686 132.988 95.3481 133.279 91.1759C132.391 93.0209 129.937 97.8573 128.372 98.1869C126.431 98.5904 118.089 96.155 117.116 95.9533C116.143 95.7515 129.336 95.3432 124.49 94.123C119.644 92.9029 115.955 93.7147 109.92 91.8893C103.885 90.064 98.9972 88.7405 96.5015 86.7627C97.9867 89.0456 102.959 91.8746 106.014 94.3395C109.069 96.8044 118.074 100.918 122.525 101.651Z" fill="#1D5EC0"/>
<path opacity="0.6" d="M122.525 101.651C126.976 102.379 130.045 104.111 131.075 102.108C131.817 100.686 132.988 95.3481 133.279 91.1759C132.391 93.0209 129.937 97.8573 128.372 98.1869C126.431 98.5904 118.089 96.155 117.116 95.9533C116.143 95.7515 129.336 95.3432 124.49 94.123C119.644 92.9029 115.955 93.7147 109.92 91.8893C103.885 90.064 98.9972 88.7405 96.5015 86.7627C97.9867 89.0456 102.959 91.8746 106.014 94.3395C109.069 96.8044 118.074 100.918 122.525 101.651Z" fill="white"/>
</g>
<path d="M128.372 89.9361C124.185 87.1071 115.457 89.2965 112.665 89.1145C109.873 88.9324 102.109 84.4552 102.109 84.4552C102.109 84.4552 103.678 82.8119 103.763 81.8083C103.848 80.8046 103.763 78.0641 103.763 76.5094C103.763 74.9547 104.2 73.4049 104.289 72.2192C104.379 71.0335 102.879 71.8502 102.63 72.2192C102.381 72.5882 101.756 76.2339 101.756 76.2339C101.756 76.2339 100.971 73.7739 100.971 73.4984C100.971 73.2229 100.797 69.8428 100.36 68.4701C99.9231 67.0975 98.8797 68.4701 98.8797 68.4701C98.7904 67.6485 98.5272 66.9941 97.9162 66.9941C97.3052 66.9941 96.7835 69.2819 96.7835 69.2819C96.7835 67.9093 96.3464 68.0027 95.9093 68.4554C95.4722 68.908 95.4769 71.9289 95.4769 71.9289L94.9505 71.1073C94.3395 70.9252 94.0105 71.9289 94.0105 72.844C94.0105 73.7591 94.3583 76.4947 94.3583 78.7775C94.3328 79.9417 94.421 81.1056 94.6215 82.2511C95.004 83.85 95.6531 85.3656 96.5391 86.7283C98.0243 89.0111 102.997 91.8401 106.052 94.3051C109.107 96.77 118.093 100.883 122.544 101.616C126.995 102.349 130.064 104.076 131.093 102.074C132.123 100.071 134.059 90.1969 133.1 86.9103" stroke="#263238" stroke-linecap="round" stroke-linejoin="round"/>
<path d="M101.756 76.2534C102.227 77.4414 102.465 78.7163 102.456 80.0025" stroke="#263238" stroke-linecap="round" stroke-linejoin="round"/>
<path d="M98.8796 68.4897C99.1435 69.6608 99.3179 70.8519 99.4013 72.0518C99.4013 73.2425 99.5752 75.9878 99.5752 75.9878" stroke="#263238" stroke-linecap="round" stroke-linejoin="round"/>
<path d="M96.7834 69.3164C96.7834 69.3164 97.1313 71.4172 97.3052 72.7604C97.4134 73.9129 97.4433 75.0721 97.3945 76.229" stroke="#263238" stroke-linecap="round" stroke-linejoin="round"/>
<path d="M95.4768 71.9634C95.4768 71.9634 95.7353 73.6067 95.9092 74.3397C96.038 75.3079 96.0977 76.2848 96.0878 77.2622" stroke="#263238" stroke-linecap="round" stroke-linejoin="round"/>
<path d="M89.8886 124.868C88.9297 124.408 88.0462 123.792 87.2707 123.043C86.2273 121.946 87.2707 119.205 85.8607 118.123C84.4507 117.04 81.673 116.647 81.1607 118.31C80.6484 119.973 80.2865 121.05 79.2384 121.414C78.1903 121.778 76.973 121.778 75.0507 122.693C73.1284 123.609 73.1331 126.895 73.1331 126.895C76.8181 127.41 80.4413 128.329 83.9431 129.636C89.005 131.643 91.2704 130.546 91.2704 130.546C91.2704 130.546 91.4631 126.861 89.8886 124.868Z" fill="white"/>
<mask id="mask4_96_459" style="mask-type:luminance" maskUnits="userSpaceOnUse" x="73" y="117" width="19" height="14">
<path d="M89.8886 124.868C88.9297 124.408 88.0462 123.792 87.2707 123.043C86.2273 121.946 87.2707 119.205 85.8607 118.123C84.4507 117.04 81.673 116.647 81.1607 118.31C80.6484 119.973 80.2865 121.05 79.2384 121.414C78.1903 121.778 76.973 121.778 75.0507 122.693C73.1284 123.609 73.1331 126.895 73.1331 126.895C76.8181 127.41 80.4413 128.329 83.9431 129.636C89.005 131.643 91.2704 130.546 91.2704 130.546C91.2704 130.546 91.4631 126.861 89.8886 124.868Z" fill="white"/>
</mask>
<g mask="url(#mask4_96_459)">
<path d="M87.7783 126.797C87.7783 126.797 84.7938 126.349 84.1546 125.232C83.5154 124.115 84.5776 122.108 82.8715 122.108C81.1654 122.108 81.3816 123.446 79.887 123.894C78.3924 124.342 76.0471 123.668 77.114 125.011C78.1809 126.354 82.4485 129.025 85.0053 129.473C87.5621 129.921 89.4844 128.356 87.7783 126.797Z" fill="#1D5EC0"/>
<path opacity="0.6" d="M87.7783 126.797C87.7783 126.797 84.7938 126.349 84.1546 125.232C83.5154 124.115 84.5776 122.108 82.8715 122.108C81.1654 122.108 81.3816 123.446 79.887 123.894C78.3924 124.342 76.0471 123.668 77.114 125.011C78.1809 126.354 82.4485 129.025 85.0053 129.473C87.5621 129.921 89.4844 128.356 87.7783 126.797Z" fill="white"/>
</g>
<path d="M89.8886 124.868C88.9297 124.408 88.0462 123.792 87.2707 123.043C86.2273 121.946 87.2707 119.205 85.8607 118.123C84.4507 117.04 81.673 116.647 81.1607 118.31C80.6484 119.973 80.2865 121.05 79.2384 121.414C78.1903 121.778 76.973 121.778 75.0507 122.693C73.1284 123.609 73.1331 126.895 73.1331 126.895C76.8181 127.41 80.4413 128.329 83.9431 129.636C89.005 131.643 91.2704 130.546 91.2704 130.546C91.2704 130.546 91.4631 126.861 89.8886 124.868Z" stroke="#263238" stroke-linecap="round" stroke-linejoin="round"/>
<path d="M102.87 130.246C105.524 129.53 108.127 128.619 110.658 127.52C113.995 126.103 117.37 124.711 120.589 123.023C125.477 120.465 127.221 116.627 125.999 111.879C124.777 107.132 122.685 103.476 113.779 105.119C104.872 106.763 102.052 112.371 98.2688 116.627C93.5923 121.867 89.7383 124.563 87.9711 124.302C85.9548 124.007 85.5271 127.953 88.3189 129.419C92.8309 131.781 97.9774 131.505 102.87 130.246Z" fill="#263238" stroke="#263238" stroke-linecap="round" stroke-linejoin="round"/>
<path d="M89.4844 124.115C89.4844 124.115 93.7473 123.225 98.2264 117.867C102.705 112.509 103.34 111.614 103.34 111.614" stroke="white" stroke-linecap="round" stroke-linejoin="round"/>
<path d="M121.51 122.679C122.268 122.033 122.969 121.318 123.606 120.543" stroke="white" stroke-linecap="round" stroke-linejoin="round"/>
<path d="M107.612 129.921C107.612 129.921 114.221 127.923 119.494 124.243" stroke="white" stroke-linecap="round" stroke-linejoin="round"/>
<path d="M54.6385 105.188C53.0901 104.879 51.5075 104.803 49.9385 104.962C45.7508 105.326 42.959 108.066 42.2634 110.443C41.5678 112.819 44.0071 118.846 49.4168 122.866C54.8265 126.885 60.4101 127.786 67.916 129.99C74.5665 131.933 81.546 134.221 81.076 134.093C80.6011 133.607 80.2251 133.025 79.9706 132.382C79.7162 131.739 79.5886 131.05 79.5955 130.354C79.6942 128.671 80.7752 127.358 81.6776 126.541C80.2676 125.862 77.9505 124.327 74.3597 120.853C68.5787 115.274 62.6755 109.69 59.2116 107.122" fill="#263238"/>
<path d="M54.6385 105.188C53.0901 104.879 51.5075 104.803 49.9385 104.962C45.7508 105.326 42.959 108.066 42.2634 110.443C41.5678 112.819 44.0071 118.846 49.4168 122.866C54.8265 126.885 60.4101 127.786 67.916 129.99C74.5665 131.933 81.546 134.221 81.076 134.093C80.6011 133.607 80.2251 133.025 79.9706 132.382C79.7162 131.739 79.5886 131.05 79.5955 130.354C79.6942 128.671 80.7752 127.358 81.6776 126.541C80.2676 125.862 77.9505 124.327 74.3597 120.853C68.5787 115.274 62.6755 109.69 59.2116 107.122" stroke="#263238" stroke-linecap="round" stroke-linejoin="round"/>
<path d="M57.3504 107.451C56.3822 106.959 55.79 106.703 55.79 106.703" stroke="white" stroke-linecap="round" stroke-linejoin="round"/>
<path d="M75.4078 120.991C75.4078 120.991 66.2381 113.4 62.6144 110.723C61.4669 109.875 60.276 109.093 59.0471 108.381" stroke="white" stroke-linecap="round" stroke-linejoin="round"/>
<path d="M102.63 129.419C100.36 128.868 100.186 129.419 94.7765 129.232C89.3668 129.045 83.4354 127.043 83.4354 127.043C83.4354 127.043 82.9278 127.122 81.6776 126.516C80.7752 127.333 79.6942 128.647 79.5955 130.329C79.5885 131.025 79.7161 131.715 79.9706 132.357C80.225 133 80.601 133.582 81.076 134.069C82.016 134.329 82.9231 134.561 83.7832 134.713C87.6231 135.446 92.3325 137.271 94.7765 138.369C96.7467 139.324 98.8892 139.827 101.06 139.845C102.978 139.845 102.231 140.145 103.631 139.776C105.032 139.407 104.548 138.383 104.548 138.383C105.144 138.352 105.733 138.229 106.296 138.019C107.34 137.65 106.992 136.189 106.992 136.189C107.677 136.215 108.361 136.1 109.003 135.85C110.07 135.264 110.07 134.034 109.61 132.898C108.914 131.176 104.9 129.965 102.63 129.419Z" fill="white"/>
<mask id="mask5_96_459" style="mask-type:luminance" maskUnits="userSpaceOnUse" x="79" y="126" width="31" height="14">
<path d="M102.63 129.419C100.36 128.868 100.186 129.419 94.7765 129.232C89.3668 129.045 83.4354 127.043 83.4354 127.043C83.4354 127.043 82.9278 127.122 81.6776 126.516C80.7752 127.333 79.6942 128.647 79.5955 130.329C79.5885 131.025 79.7161 131.715 79.9706 132.357C80.225 133 80.601 133.582 81.076 134.069C82.016 134.329 82.9231 134.561 83.7832 134.713C87.6231 135.446 92.3325 137.271 94.7765 138.369C96.7467 139.324 98.8892 139.827 101.06 139.845C102.978 139.845 102.231 140.145 103.631 139.776C105.032 139.407 104.548 138.383 104.548 138.383C105.144 138.352 105.733 138.229 106.296 138.019C107.34 137.65 106.992 136.189 106.992 136.189C107.677 136.215 108.361 136.1 109.003 135.85C110.07 135.264 110.07 134.034 109.61 132.898C108.914 131.176 104.9 129.965 102.63 129.419Z" fill="white"/>
</mask>
<g mask="url(#mask5_96_459)">
<path d="M103.631 139.761C104.501 139.535 104.642 139.048 104.628 138.713C104.133 138.794 103.634 138.84 103.133 138.851C100.36 138.851 97.1641 136.391 91.8296 135.5C88.9109 135.008 84.2673 134.192 80.6624 133.532C80.7987 133.719 80.935 133.896 81.076 134.059C82.016 134.319 82.9231 134.551 83.7832 134.703C87.6231 135.436 92.3325 137.262 94.7765 138.359C96.7467 139.314 98.8892 139.817 101.06 139.835C102.978 139.83 102.231 140.12 103.631 139.761Z" fill="#1D5EC0"/>
<path opacity="0.6" d="M103.631 139.761C104.501 139.535 104.642 139.048 104.628 138.713C104.133 138.794 103.634 138.84 103.133 138.851C100.36 138.851 97.1641 136.391 91.8296 135.5C88.9109 135.008 84.2673 134.192 80.6624 133.532C80.7987 133.719 80.935 133.896 81.076 134.059C82.016 134.319 82.9231 134.551 83.7832 134.703C87.6231 135.436 92.3325 137.262 94.7765 138.359C96.7467 139.314 98.8892 139.817 101.06 139.835C102.978 139.83 102.231 140.12 103.631 139.761Z" fill="white"/>
</g>
<path d="M102.63 129.419C100.36 128.868 100.186 129.419 94.7765 129.232C89.3668 129.045 83.4354 127.043 83.4354 127.043C83.4354 127.043 82.9278 127.122 81.6776 126.516C80.7752 127.333 79.6942 128.647 79.5955 130.329C79.5885 131.025 79.7161 131.715 79.9706 132.357C80.225 133 80.601 133.582 81.076 134.069C82.016 134.329 82.9231 134.561 83.7832 134.713C87.6231 135.446 92.3325 137.271 94.7765 138.369C96.7467 139.324 98.8892 139.827 101.06 139.845C102.978 139.845 102.231 140.145 103.631 139.776C105.032 139.407 104.548 138.383 104.548 138.383C105.144 138.352 105.733 138.229 106.296 138.019C107.34 137.65 106.992 136.189 106.992 136.189C107.677 136.215 108.361 136.1 109.003 135.85C110.07 135.264 110.07 134.034 109.61 132.898C108.914 131.176 104.9 129.965 102.63 129.419Z" stroke="#263238" stroke-linecap="round" stroke-linejoin="round"/>
<path d="M106.992 136.184C106.19 135.435 105.304 134.789 104.355 134.26" stroke="#263238" stroke-linecap="round" stroke-linejoin="round"/>
<path d="M104.548 138.369C104.548 138.369 102.978 137.271 102.63 136.543" stroke="#263238" stroke-linecap="round" stroke-linejoin="round"/>
<path d="M102.109 139.628C101.442 139.257 100.89 138.694 100.52 138.004" stroke="#263238" stroke-linecap="round" stroke-linejoin="round"/>
<path d="M100.012 139.83C99.1956 139.664 98.4565 139.213 97.9163 138.551" stroke="#263238" stroke-linecap="round" stroke-linejoin="round"/>
<path d="M98.1935 24.008C98.1935 24.008 94.8753 27.2011 95.1432 30.6746C95.4111 34.1481 94.3442 36.0866 94.7437 38.5958C95.1432 41.105 95.6837 45.9758 96.6237 47.2107C97.5637 48.4456 97.6859 49.8527 98.6165 50.5465C99.5471 51.2402 102.734 51.2402 103.396 50.1282C104.059 49.0163 111.095 44.7163 111.626 43.1812C112.157 41.6462 112.026 41.2378 112.026 41.2378C112.026 41.2378 116.669 38.3203 116.006 35.8258C115.344 33.3314 113.483 32.3523 112.42 33.1887C111.358 34.0251 111.227 34.4384 111.227 34.4384C111.227 34.4384 108.449 32.5245 108.98 30.7189C109.511 28.9132 111.17 28.2933 110.639 26.2072C110.108 24.1211 106.136 25.1642 101.911 25.5037C98.5789 25.7595 99.674 22.7288 98.1935 24.008Z" fill="white"/>
<mask id="mask6_96_459" style="mask-type:luminance" maskUnits="userSpaceOnUse" x="94" y="23" width="23" height="29">
<path d="M98.1935 24.008C98.1935 24.008 94.8753 27.2011 95.1432 30.6746C95.4111 34.1481 94.3442 36.0866 94.7437 38.5958C95.1432 41.105 95.6837 45.9758 96.6237 47.2107C97.5637 48.4456 97.6859 49.8527 98.6165 50.5465C99.5471 51.2402 102.734 51.2402 103.396 50.1282C104.059 49.0163 111.095 44.7163 111.626 43.1812C112.157 41.6462 112.026 41.2378 112.026 41.2378C112.026 41.2378 116.669 38.3203 116.006 35.8258C115.344 33.3314 113.483 32.3523 112.42 33.1887C111.358 34.0251 111.227 34.4384 111.227 34.4384C111.227 34.4384 108.449 32.5245 108.98 30.7189C109.511 28.9132 111.17 28.2933 110.639 26.2072C110.108 24.1211 106.136 25.1642 101.911 25.5037C98.5789 25.7595 99.674 22.7288 98.1935 24.008Z" fill="white"/>
</mask>
<g mask="url(#mask6_96_459)">
<path d="M115.983 35.816C115.32 33.3167 113.459 32.3425 112.397 33.1789C111.335 34.0153 111.203 34.4286 111.203 34.4286C111.203 34.4286 108.425 32.5147 108.956 30.7091C109.488 28.9034 111.147 28.2835 110.616 26.1974C110.084 24.1114 107.467 21.858 103.241 22.1975C102.268 22.2762 101.563 22.3549 101.013 22.4582C102.776 22.3106 105.822 22.3205 107.415 23.8457C109.765 26.0794 107.612 28.313 107.029 30.5516C106.447 32.7902 107.805 35.8308 107.415 38.0645C107.025 40.2982 105.088 41.9218 105.088 44.7655C105.088 47.6093 105.281 48.6277 102.738 50.453L102.24 50.827C102.679 50.74 103.074 50.4923 103.354 50.1283C104.017 49.0164 111.053 44.7163 111.584 43.1813C112.115 41.6462 111.983 41.2379 111.983 41.2379C111.983 41.2379 116.646 38.3203 115.983 35.816Z" fill="#1D5EC0"/>
<path opacity="0.6" d="M115.983 35.816C115.32 33.3167 113.459 32.3425 112.397 33.1789C111.335 34.0153 111.203 34.4286 111.203 34.4286C111.203 34.4286 108.425 32.5147 108.956 30.7091C109.488 28.9034 111.147 28.2835 110.616 26.1974C110.084 24.1114 107.467 21.858 103.241 22.1975C102.268 22.2762 101.563 22.3549 101.013 22.4582C102.776 22.3106 105.822 22.3205 107.415 23.8457C109.765 26.0794 107.612 28.313 107.029 30.5516C106.447 32.7902 107.805 35.8308 107.415 38.0645C107.025 40.2982 105.088 41.9218 105.088 44.7655C105.088 47.6093 105.281 48.6277 102.738 50.453L102.24 50.827C102.679 50.74 103.074 50.4923 103.354 50.1283C104.017 49.0164 111.053 44.7163 111.584 43.1813C112.115 41.6462 111.983 41.2379 111.983 41.2379C111.983 41.2379 116.646 38.3203 115.983 35.816Z" fill="white"/>
</g>
<path d="M98.1935 24.008C98.1935 24.008 94.8753 27.2011 95.1432 30.6746C95.4111 34.1481 94.3442 36.0866 94.7437 38.5958C95.1432 41.105 95.6837 45.9758 96.6237 47.2107C97.5637 48.4456 97.6859 49.8527 98.6165 50.5465C99.5471 51.2402 102.734 51.2402 103.396 50.1282C104.059 49.0163 111.095 44.7163 111.626 43.1812C112.157 41.6462 112.026 41.2378 112.026 41.2378C112.026 41.2378 116.669 38.3203 116.006 35.8258C115.344 33.3314 113.483 32.3523 112.42 33.1887C111.358 34.0251 111.227 34.4384 111.227 34.4384C111.227 34.4384 108.449 32.5245 108.98 30.7189C109.511 28.9132 111.17 28.2933 110.639 26.2072C110.108 24.1211 106.136 25.1642 101.911 25.5037C98.5789 25.7595 99.674 22.7288 98.1935 24.008Z" stroke="#263238" stroke-linecap="round" stroke-linejoin="round"/>
<path d="M101.46 36.2441C101.46 36.2441 102.912 38.3253 105.295 36.2441" stroke="#263238" stroke-linecap="round" stroke-linejoin="round"/>
<path d="M95.5378 35.9539C95.6602 36.1219 95.8155 36.2604 95.9934 36.3602C96.1713 36.46 96.3676 36.5186 96.569 36.5321C96.7704 36.5456 96.9722 36.5137 97.1608 36.4386C97.3494 36.3635 97.5204 36.2468 97.6623 36.0965" stroke="#263238" stroke-linecap="round" stroke-linejoin="round"/>
<path d="M100.318 42.212C99.2557 42.4924 97.7987 42.0742 97.6624 41.656C97.5261 41.2378 98.3298 35.816 98.3298 35.816L97.3898 34.1481C97.3898 34.1481 96.5908 32.8984 95.5098 33.7348" stroke="#263238" stroke-linecap="round" stroke-linejoin="round"/>
<path d="M97.9302 44.7113L101.07 44.6965" stroke="#263238" stroke-linecap="round" stroke-linejoin="round"/>
<path d="M106.16 34.0104C105.273 33.4143 104.246 33.0861 103.192 33.0618C102.138 33.0375 101.098 33.318 100.186 33.8726" stroke="#263238" stroke-linecap="round" stroke-linejoin="round"/>
<path d="M114.954 36.3081C114.954 36.3081 114.399 34.8025 113.29 35.265C112.181 35.7275 111.96 37.233 111.96 37.233C111.96 37.233 112.848 36.8837 112.848 38.0448C112.848 39.2059 111.852 38.7385 111.852 38.7385" stroke="#263238" stroke-linecap="round" stroke-linejoin="round"/>
</g>
<defs>
<clipPath id="clip0_96_459">
<rect width="191" height="165" fill="white" transform="translate(0.5 0.5)"/>
</clipPath>
</defs>
</svg>
